<svg width="28" height="28" viewBox="0 0 28 28" fill="none" xmlns="http://www.w3.org/2000/svg">
<path d="M17.3224 4.60827V9.0416H15.5724V4.60827C15.5724 4.29327 15.2924 4.1416 15.1057 4.1416C15.0474 4.1416 14.9891 4.15327 14.9307 4.1766L5.67906 7.66494C5.06073 7.89827 4.66406 8.4816 4.66406 9.1466V9.92827C3.6024 10.7216 2.91406 11.9933 2.91406 13.4283V9.1466C2.91406 7.75827 3.76573 6.5216 5.06073 6.0316L14.3241 2.5316C14.5807 2.43827 14.8491 2.3916 15.1057 2.3916C16.2724 2.3916 17.3224 3.3366 17.3224 4.60827Z" fill="#EEEEEE"/>
<path d="M25.0835 16.9163V18.083C25.0835 18.398 24.8385 18.6547 24.5118 18.6663H22.8085C22.1901 18.6663 21.6301 18.2113 21.5835 17.6047C21.5485 17.243 21.6885 16.9047 21.9218 16.6713C22.1318 16.4497 22.4235 16.333 22.7385 16.333H24.5001C24.8385 16.3447 25.0835 16.6013 25.0835 16.9163Z" fill="#EEEEEE"/>
<path d="M22.7241 15.1087H23.9141C24.5557 15.1087 25.0807 14.5837 25.0807 13.942V13.4287C25.0807 11.0137 23.1091 9.04199 20.6941 9.04199H7.30073C6.30906 9.04199 5.39906 9.36866 4.66406 9.92866C3.6024 10.722 2.91406 11.9937 2.91406 13.4287V21.2803C2.91406 23.6953 4.88573 25.667 7.30073 25.667H20.6941C23.1091 25.667 25.0807 23.6953 25.0807 21.2803V21.0587C25.0807 20.417 24.5557 19.892 23.9141 19.892H22.8991C21.7791 19.892 20.7057 19.2037 20.4141 18.1187C20.1691 17.232 20.4607 16.3803 21.0441 15.8087C21.4757 15.3653 22.0707 15.1087 22.7241 15.1087ZM16.3307 14.8753H8.16406C7.68573 14.8753 7.28906 14.4787 7.28906 14.0003C7.28906 13.522 7.68573 13.1253 8.16406 13.1253H16.3307C16.8091 13.1253 17.2057 13.522 17.2057 14.0003C17.2057 14.4787 16.8091 14.8753 16.3307 14.8753Z" fill="#EEEEEE"/>
</svg>
