<svg width="28" height="28" viewBox="0 0 28 28" fill="none" xmlns="http://www.w3.org/2000/svg">
<path d="M24.3683 6.04333V19.2267C24.3683 21.5367 22.49 23.415 20.18 23.415C17.8817 23.415 15.9917 21.5367 15.9917 19.2267C15.9917 16.9283 17.8817 15.05 20.18 15.05C21.16 15.05 22.035 15.3883 22.7467 15.9483V9.00667L12.0017 12.0633V21.4783C12.0017 23.7883 10.1117 25.6667 7.81333 25.6667C5.50333 25.6667 3.625 23.7883 3.625 21.4783C3.625 19.18 5.50333 17.3017 7.81333 17.3017C8.78167 17.3017 9.65667 17.64 10.3683 18.1883V7.875C10.3683 6.16 11.4067 4.83 13.0517 4.38667L19.795 2.54333C21.16 2.17 22.315 2.29833 23.1317 2.92833C23.96 3.54667 24.3683 4.59667 24.3683 6.04333Z" fill="#EEEEEE"/>
</svg>
