<svg width="28" height="28" viewBox="0 0 28 28" fill="none" xmlns="http://www.w3.org/2000/svg">
<path d="M18.8909 2.33301H9.11427C4.8676 2.33301 2.33594 4.86467 2.33594 9.11134V18.888C2.33594 23.1347 4.8676 25.6663 9.11427 25.6663H18.8909C23.1376 25.6663 25.6693 23.1347 25.6693 18.888V9.11134C25.6693 4.86467 23.1376 2.33301 18.8909 2.33301ZM11.6343 17.383L9.00927 20.008C8.83427 20.183 8.6126 20.2647 8.39094 20.2647C8.16927 20.2647 7.93594 20.183 7.7726 20.008L6.8976 19.133C6.5476 18.7947 6.5476 18.2347 6.8976 17.8963C7.23594 17.558 7.78427 17.558 8.13427 17.8963L8.39094 18.153L10.3976 16.1463C10.7359 15.808 11.2843 15.808 11.6343 16.1463C11.9726 16.4847 11.9726 17.0447 11.6343 17.383ZM11.6343 9.21634L9.00927 11.8413C8.83427 12.0163 8.6126 12.098 8.39094 12.098C8.16927 12.098 7.93594 12.0163 7.7726 11.8413L6.8976 10.9663C6.5476 10.628 6.5476 10.068 6.8976 9.72967C7.23594 9.39134 7.78427 9.39134 8.13427 9.72967L8.39094 9.98634L10.3976 7.97967C10.7359 7.64134 11.2843 7.64134 11.6343 7.97967C11.9726 8.31801 11.9726 8.87801 11.6343 9.21634ZM20.4893 19.3897H14.3643C13.8859 19.3897 13.4893 18.993 13.4893 18.5147C13.4893 18.0363 13.8859 17.6397 14.3643 17.6397H20.4893C20.9793 17.6397 21.3643 18.0363 21.3643 18.5147C21.3643 18.993 20.9793 19.3897 20.4893 19.3897ZM20.4893 11.223H14.3643C13.8859 11.223 13.4893 10.8263 13.4893 10.348C13.4893 9.86967 13.8859 9.47301 14.3643 9.47301H20.4893C20.9793 9.47301 21.3643 9.86967 21.3643 10.348C21.3643 10.8263 20.9793 11.223 20.4893 11.223Z" fill="#EEEEEE"/>
</svg>
