<svg width="28" height="28" viewBox="0 0 28 28" fill="none" xmlns="http://www.w3.org/2000/svg">
<path d="M24.6724 7.19866C24.1941 6.94199 23.1907 6.67366 21.8257 7.63033L20.1107 8.84366C19.9824 5.21533 18.4074 3.79199 14.5807 3.79199H7.58073C3.59073 3.79199 2.03906 5.34366 2.03906 9.33366V18.667C2.03906 21.3503 3.4974 24.2087 7.58073 24.2087H14.5807C18.4074 24.2087 19.9824 22.7853 20.1107 19.157L21.8257 20.3703C22.5491 20.8837 23.1791 21.047 23.6807 21.047C24.1124 21.047 24.4507 20.9187 24.6724 20.802C25.1507 20.557 25.9557 19.892 25.9557 18.2237V9.77699C25.9557 8.10866 25.1507 7.44366 24.6724 7.19866ZM12.8307 13.277C11.6291 13.277 10.6374 12.297 10.6374 11.0837C10.6374 9.87033 11.6291 8.89033 12.8307 8.89033C14.0324 8.89033 15.0241 9.87033 15.0241 11.0837C15.0241 12.297 14.0324 13.277 12.8307 13.277Z" fill="#EEEEEE"/>
</svg>
