<svg width="53" height="53" viewBox="0 0 53 53" fill="none" xmlns="http://www.w3.org/2000/svg">
<path d="M47.7418 14.046L45.2835 37.6986C45.0829 39.6282 43.3268 41.2407 41.3717 41.2853L40.7466 41.3029C37.4375 41.4125 32.7001 42.3031 28.8375 43.4827C27.4882 43.8897 26.1567 42.771 26.3035 41.3586L29.1795 13.6876C29.256 12.9516 29.7442 12.3172 30.4381 12.0252C34.2844 10.4219 39.9786 9.22541 43.7528 9.2832L43.8722 9.2952C46.2602 9.53525 47.9899 11.6589 47.7418 14.046Z" fill="#EEEEEE"/>
<path d="M25.302 11.5072C21.865 9.17175 16.5347 6.86707 12.8267 6.1727L12.6874 6.1587C10.2994 5.91865 8.16859 7.65422 7.92048 10.0414L5.46216 33.694C5.26161 35.6236 6.64967 37.5521 8.55513 37.9848L9.16375 38.1264C12.3818 38.8921 16.8381 40.7069 20.3781 42.6306C21.6158 43.2978 23.1499 42.4671 23.2967 41.0547L26.1726 13.3837C26.2512 12.6278 25.9214 11.9313 25.302 11.5072ZM13.3128 16.3925L17.7902 16.8426C18.6061 16.9246 19.2124 17.669 19.1276 18.4846C19.0408 19.3201 18.296 19.9086 17.4801 19.8265L13.0026 19.3764C12.1867 19.2944 11.5784 18.5699 11.6652 17.7344C11.75 16.9188 12.4969 16.3105 13.3128 16.3925ZM18.3523 25.9444L12.3824 25.3443C11.5665 25.2623 10.9581 24.5378 11.045 23.7023C11.1297 22.8867 11.8766 22.2784 12.6925 22.3604L18.6624 22.9605C19.4783 23.0425 20.0846 23.7869 19.9998 24.6025C19.913 25.438 19.1682 26.0264 18.3523 25.9444Z" fill="#EEEEEE"/>
</svg>
