<svg width="48" height="48" viewBox="0 0 48 48" fill="none" xmlns="http://www.w3.org/2000/svg">
<path d="M30.44 13.0996H11.56C11 13.0996 10.48 13.1196 10 13.1396C5.26 13.4196 4 15.1596 4 20.5596V21.7196C4 22.8196 4.9 23.7196 6 23.7196H36C37.1 23.7196 38 22.8196 38 21.7196V20.5596C38 14.5996 36.48 13.0996 30.44 13.0996Z" fill="#EEEEEE"/>
<path d="M6 26.7207C4.9 26.7207 4 27.6207 4 28.7207V34.5407C4 40.5007 5.52 42.0007 11.56 42.0007H30.44C36.38 42.0007 37.94 40.5607 38 34.8607V28.7207C38 27.6207 37.1 26.7207 36 26.7207H6ZM13.92 37.1207H10.5C9.68 37.1207 9 36.4407 9 35.6207C9 34.8007 9.68 34.1207 10.5 34.1207H13.94C14.76 34.1207 15.44 34.8007 15.44 35.6207C15.44 36.4407 14.76 37.1207 13.92 37.1207ZM25.1 37.1207H18.22C17.4 37.1207 16.72 36.4407 16.72 35.6207C16.72 34.8007 17.4 34.1207 18.22 34.1207H25.1C25.92 34.1207 26.6 34.8007 26.6 35.6207C26.6 36.4407 25.94 37.1207 25.1 37.1207Z" fill="#EEEEEE"/>
<path d="M43.9992 26.6592V16.1792C43.9992 9.91922 40.4192 7.19922 35.0192 7.19922H17.1592C15.6392 7.19922 14.2792 7.41922 13.0792 7.87922C12.1392 8.21922 11.2992 8.71922 10.6192 9.37922C10.2592 9.71922 10.5392 10.2792 11.0592 10.2792H32.7992C37.2992 10.2792 40.9392 13.9192 40.9392 18.4192V32.7592C40.9392 33.2592 41.4792 33.5392 41.8392 33.1792C43.2192 31.7192 43.9992 29.5792 43.9992 26.6592Z" fill="#EEEEEE"/>
</svg>
