<svg width="11" height="12" viewBox="0 0 11 12" fill="none" xmlns="http://www.w3.org/2000/svg">
<path d="M7.97357 1.02113C8.14275 0.795528 8.097 0.475492 7.87139 0.306318C7.64578 0.137143 7.32575 0.182891 7.15657 0.408498L4.85919 3.47223C4.69002 3.69784 4.73577 4.01787 4.96137 4.18704C5.18698 4.35622 5.50702 4.31047 5.67619 4.08486L7.97357 1.02113Z" fill="#EEEEEE"/>
<path d="M4.52959 3.64681L4.52959 3.64681C4.30398 3.81598 3.98395 3.77023 3.81478 3.54463L2.30721 1.53418C2.13804 1.30858 2.18379 0.988542 2.40939 0.819367L2.40939 0.819366C2.635 0.650191 2.95504 0.695938 3.12421 0.921546L4.63177 2.93199C4.80095 3.1576 4.7552 3.47763 4.52959 3.64681Z" fill="#EEEEEE"/>
<path fill-rule="evenodd" clip-rule="evenodd" d="M1 3C0.447715 3 0 3.44772 0 4V11C0 11.5523 0.447715 12 1 12H10C10.5523 12 11 11.5523 11 11V4C11 3.44772 10.5523 3 10 3H1ZM2.83333 5C2.28105 5 1.83333 5.44772 1.83333 6V9C1.83333 9.55228 2.28105 10 2.83333 10H6.33333C6.88562 10 7.33333 9.55228 7.33333 9V6C7.33333 5.44772 6.88562 5 6.33333 5H2.83333ZM8.25 5.45833C8.25 5.2052 8.4552 5 8.70833 5C8.96146 5 9.16667 5.2052 9.16667 5.45833V6.04167C9.16667 6.2948 8.96146 6.5 8.70833 6.5C8.4552 6.5 8.25 6.2948 8.25 6.04167V5.45833ZM8.70833 7C8.4552 7 8.25 7.2052 8.25 7.45833V8.04167C8.25 8.2948 8.4552 8.5 8.70833 8.5C8.96146 8.5 9.16667 8.2948 9.16667 8.04167V7.45833C9.16667 7.2052 8.96146 7 8.70833 7Z" fill="#EEEEEE"/>
</svg>
