<svg width="20" height="20" viewBox="0 0 20 20" fill="none" xmlns="http://www.w3.org/2000/svg">
<path d="M17.6276 5.14232C17.2859 4.95898 16.5693 4.76732 15.5943 5.45065L14.3693 6.31732C14.2776 3.72565 13.1526 2.70898 10.4193 2.70898H5.41927C2.56927 2.70898 1.46094 3.81732 1.46094 6.66732V13.334C1.46094 15.2507 2.5026 17.2923 5.41927 17.2923H10.4193C13.1526 17.2923 14.2776 16.2757 14.3693 13.684L15.5943 14.5507C16.1109 14.9173 16.5609 15.034 16.9193 15.034C17.2276 15.034 17.4693 14.9423 17.6276 14.859C17.9693 14.684 18.5443 14.209 18.5443 13.0173V6.98399C18.5443 5.79232 17.9693 5.31732 17.6276 5.14232ZM9.16927 9.48399C8.31094 9.48399 7.6026 8.78399 7.6026 7.91732C7.6026 7.05065 8.31094 6.35065 9.16927 6.35065C10.0276 6.35065 10.7359 7.05065 10.7359 7.91732C10.7359 8.78399 10.0276 9.48399 9.16927 9.48399Z" fill="#EEEEEE"/>
</svg>
