<svg width="20" height="20" viewBox="0 0 20 20" fill="none" xmlns="http://www.w3.org/2000/svg">
<path d="M17.4104 4.31681V13.7335C17.4104 15.3835 16.0688 16.7251 14.4188 16.7251C12.7771 16.7251 11.4271 15.3835 11.4271 13.7335C11.4271 12.0918 12.7771 10.7501 14.4188 10.7501C15.1188 10.7501 15.7438 10.9918 16.2521 11.3918V6.43347L8.57708 8.61681V15.3418C8.57708 16.9918 7.22708 18.3335 5.58542 18.3335C3.93542 18.3335 2.59375 16.9918 2.59375 15.3418C2.59375 13.7001 3.93542 12.3585 5.58542 12.3585C6.27708 12.3585 6.90208 12.6001 7.41042 12.9918V5.62514C7.41042 4.40014 8.15208 3.45014 9.32708 3.13347L14.1438 1.81681C15.1188 1.55014 15.9438 1.64181 16.5271 2.09181C17.1188 2.53347 17.4104 3.28347 17.4104 4.31681Z" fill="#EEEEEE"/>
</svg>
