<svg width="24" height="23" viewBox="0 0 24 23" fill="none" xmlns="http://www.w3.org/2000/svg">
<path d="M18.04 12.6642C17.62 13.0422 17.38 13.5861 17.44 14.1669C17.53 15.1625 18.52 15.8908 19.6 15.8908H21.5V16.9878C21.5 18.8961 19.81 20.4541 17.74 20.4541H6.26C4.19 20.4541 2.5 18.8961 2.5 16.9878V10.7836C2.5 8.87536 4.19 7.31738 6.26 7.31738H17.74C19.81 7.31738 21.5 8.87536 21.5 10.7836V12.1111H19.48C18.92 12.1111 18.41 12.3139 18.04 12.6642Z" stroke="#EEEEEE" stroke-linecap="round" stroke-linejoin="round"/>
<path d="M2.5 11.6133V7.40035C2.5 6.30332 3.23 5.32609 4.34 4.9389L12.28 2.17328C13.52 1.74 14.85 2.58815 14.85 3.81424V7.31736" stroke="#EEEEEE" stroke-linecap="round" stroke-linejoin="round"/>
<path d="M22.5588 13.0516V14.9507C22.5588 15.4577 22.1188 15.8726 21.5588 15.891H19.5988C18.5188 15.891 17.5288 15.1627 17.4388 14.1671C17.3788 13.5863 17.6188 13.0424 18.0388 12.6644C18.4088 12.3141 18.9188 12.1113 19.4788 12.1113H21.5588C22.1188 12.1298 22.5588 12.5446 22.5588 13.0516Z" stroke="#EEEEEE" stroke-linecap="round" stroke-linejoin="round"/>
<path d="M7 11.2354H14" stroke="#EEEEEE" stroke-linecap="round" stroke-linejoin="round"/>
</svg>
