<svg width="24" height="24" viewBox="0 0 24 24" fill="none" xmlns="http://www.w3.org/2000/svg">
<path d="M6.27625 21.9998C7.99938 21.9998 9.39625 20.6029 9.39625 18.8798C9.39625 17.1566 7.99938 15.7598 6.27625 15.7598C4.55312 15.7598 3.15625 17.1566 3.15625 18.8798C3.15625 20.6029 4.55312 21.9998 6.27625 21.9998Z" stroke="#EEEEEE" stroke-linecap="round" stroke-linejoin="round"/>
<path d="M20.8384 16.8003V4.60034C20.8384 2.00034 19.2084 1.64034 17.5584 2.09034L11.3184 3.79034C10.1784 4.10034 9.39844 5.00034 9.39844 6.30034V8.47034V9.93034V18.8703" stroke="#EEEEEE" stroke-linecap="round" stroke-linejoin="round"/>
<path d="M17.7216 19.9197C19.4447 19.9197 20.8416 18.5228 20.8416 16.7997C20.8416 15.0766 19.4447 13.6797 17.7216 13.6797C15.9984 13.6797 14.6016 15.0766 14.6016 16.7997C14.6016 18.5228 15.9984 19.9197 17.7216 19.9197Z" stroke="#EEEEEE" stroke-linecap="round" stroke-linejoin="round"/>
<path d="M9.39844 9.52039L20.8384 6.40039" stroke="#EEEEEE" stroke-linecap="round" stroke-linejoin="round"/>
</svg>
