<svg width="11" height="18" viewBox="0 0 11 18" fill="none" xmlns="http://www.w3.org/2000/svg">
<path d="M9.17485 17.9999C8.94004 18.0006 8.70804 17.9582 8.49589 17.8759C8.28374 17.7935 8.09684 17.6734 7.94891 17.5242L0.357546 9.81069C0.126375 9.58065 0 9.29211 0 8.99433C0 8.69656 0.126375 8.40802 0.357546 8.17798L8.2161 0.464424C8.48288 0.201884 8.86624 0.0367824 9.28184 0.00543999C9.69744 -0.0259024 10.1112 0.0790816 10.4322 0.297296C10.7532 0.515511 10.955 0.829082 10.9933 1.16903C11.0317 1.50897 10.9033 1.84744 10.6365 2.10998L3.61099 9.00076L10.4008 15.8915C10.593 16.0802 10.7151 16.31 10.7526 16.5537C10.7901 16.7974 10.7415 17.0448 10.6126 17.2666C10.4836 17.4884 10.2797 17.6753 10.0249 17.8053C9.77007 17.9352 9.4751 18.0028 9.17485 17.9999Z" fill="#A4A2A2"/>
</svg>
