<svg width="24" height="24" viewBox="0 0 24 24" fill="none" xmlns="http://www.w3.org/2000/svg">
<path d="M11.5 21C16.7467 21 21 16.7467 21 11.5C21 6.25329 16.7467 2 11.5 2C6.25329 2 2 6.25329 2 11.5C2 16.7467 6.25329 21 11.5 21Z" fill="#AEB5BD"/>
<path d="M21.3005 22.0005C21.1205 22.0005 20.9405 21.9305 20.8105 21.8005L18.9505 19.9405C18.6805 19.6705 18.6805 19.2305 18.9505 18.9505C19.2205 18.6805 19.6605 18.6805 19.9405 18.9505L21.8005 20.8105C22.0705 21.0805 22.0705 21.5205 21.8005 21.8005C21.6605 21.9305 21.4805 22.0005 21.3005 22.0005Z" fill="#AEB5BD"/>
</svg>
